<?xml version="1.0" standalone="no"?>
<!DOCTYPE svg PUBLIC "-//W3C//DTD SVG 20010904//EN"
 "http://www.w3.org/TR/2001/REC-SVG-20010904/DTD/svg10.dtd">
<svg version="1.0" xmlns="http://www.w3.org/2000/svg"
 width="359.000000pt" height="120.000000pt" viewBox="0 0 359.000000 120.000000"
 preserveAspectRatio="xMidYMid meet">

<g transform="translate(0.000000,120.000000) scale(0.100000,-0.100000)"
fill="#000000" stroke="none">
<path d="M167 1170 c-80 -15 -132 -79 -142 -173 -4 -34 -5 -237 -3 -452 3
-346 5 -394 20 -421 21 -39 71 -82 106 -92 35 -9 3259 -9 3294 0 35 10 85 53
106 92 15 28 17 74 17 466 0 239 -3 447 -7 462 -10 35 -53 85 -92 106 -29 16
-141 17 -1646 18 -888 1 -1632 -1 -1653 -6z m522 -277 c-10 -46 -68 -103 -104
-103 -28 0 -30 6 -14 47 14 38 47 73 84 88 39 17 45 12 34 -32z m691 -15 l0
-52 28 27 c45 43 72 34 31 -10 l-22 -22 27 -36 c25 -32 25 -35 8 -35 -11 0
-27 11 -36 25 -18 28 -36 25 -36 -6 0 -10 -7 -19 -15 -19 -12 0 -15 16 -15 83
0 46 3 87 7 90 16 17 23 3 23 -45z m140 -38 c0 -73 -3 -90 -15 -90 -12 0 -15
16 -15 83 0 46 3 87 7 90 18 18 23 0 23 -83z m210 60 c0 -28 2 -30 25 -24 50
13 84 -53 55 -106 -8 -16 -21 -19 -60 -19 l-50 2 0 88 c0 72 3 89 15 89 10 0
15 -10 15 -30z m360 -60 c0 -73 -3 -90 -15 -90 -12 0 -15 17 -15 90 0 73 3 90
15 90 12 0 15 -17 15 -90z m70 75 c0 -8 -7 -15 -15 -15 -8 0 -15 7 -15 15 0 8
7 15 15 15 8 0 15 -7 15 -15z m-1058 -80 c7 -25 15 -45 18 -45 3 0 11 20 18
45 7 28 18 45 27 45 19 0 20 4 -11 -82 -29 -82 -30 -83 -61 -93 -17 -5 -23 -2
-23 9 0 9 7 16 15 16 20 0 19 20 -5 82 -24 63 -24 68 -5 68 9 0 20 -17 27 -45z
m128 7 c0 -21 6 -47 14 -57 22 -30 46 -3 46 51 0 32 4 44 15 44 12 0 15 -14
15 -65 0 -51 -3 -65 -15 -65 -8 0 -15 5 -15 12 0 9 -3 9 -12 0 -21 -21 -58
-14 -68 14 -11 29 -13 87 -3 97 15 16 23 5 23 -31z m418 26 c7 -7 12 -36 12
-64 l0 -53 -46 2 c-77 3 -86 56 -13 72 16 4 29 10 29 15 0 16 -20 21 -41 10
-26 -14 -36 -6 -19 15 15 18 61 20 78 3z m364 -5 c22 -20 24 -76 2 -97 -20
-20 -68 -20 -88 0 -21 20 -20 73 1 96 20 22 61 23 85 1z m148 -48 c0 -51 -3
-65 -15 -65 -12 0 -15 14 -15 65 0 51 3 65 15 65 12 0 15 -14 15 -65z m60 54
c0 -8 5 -8 15 1 21 17 61 4 69 -22 12 -45 7 -98 -9 -98 -11 0 -15 12 -15 44 0
51 -20 76 -45 56 -9 -8 -15 -30 -15 -56 0 -32 -4 -44 -15 -44 -12 0 -15 13
-15 58 0 32 3 62 7 65 10 11 23 8 23 -4z m198 -1 c9 -9 12 -9 12 0 0 7 7 12
15 12 12 0 15 -14 15 -68 0 -40 -5 -75 -12 -84 -17 -21 -55 -29 -84 -18 -38
15 -28 29 18 27 33 -2 43 2 46 15 3 14 -2 16 -31 11 -28 -4 -37 -1 -51 18 -20
29 -20 48 0 77 17 24 53 29 72 10z m-1895 -104 c43 -15 51 -15 94 0 59 20 96
20 139 0 56 -27 60 -39 26 -78 -16 -18 -32 -50 -36 -69 -9 -46 17 -110 56
-141 l31 -24 -29 -52 c-16 -30 -42 -67 -58 -83 -31 -30 -38 -31 -147 -12 -21
4 -56 1 -86 -8 -63 -19 -83 -10 -135 58 -112 147 -99 355 27 411 40 18 62 17
118 -2z m712 -121 c26 -67 125 -346 125 -354 0 -6 -12 -9 -27 -7 -24 3 -31 11
-47 56 l-19 53 -70 -3 -70 -3 -17 -50 c-14 -42 -21 -51 -43 -53 -17 -2 -27 1
-27 10 0 7 24 81 54 163 80 222 72 205 105 205 18 0 31 -6 36 -17z m1100 -14
c43 -38 49 -79 10 -79 -14 0 -25 5 -25 10 0 26 -41 50 -85 50 -36 0 -48 -5
-60 -24 -30 -45 -7 -65 111 -95 56 -15 94 -52 94 -91 0 -73 -55 -120 -139
-120 -73 0 -141 42 -141 87 0 33 35 30 70 -7 22 -23 37 -30 67 -30 48 0 83 23
83 55 0 30 -29 50 -94 65 -99 22 -138 69 -115 138 16 47 60 72 131 72 50 0 62
-4 93 -31z m165 -39 c0 -25 4 -30 25 -30 20 0 25 -5 25 -25 0 -20 -5 -25 -25
-25 l-26 0 3 -87 c3 -83 4 -88 26 -91 16 -3 22 -10 22 -29 0 -24 -2 -25 -37
-20 -59 10 -68 26 -71 131 -3 83 -6 95 -23 99 -25 7 -24 37 1 44 14 4 20 14
20 34 0 26 4 29 30 29 27 0 30 -3 30 -30z m-1050 -50 c0 -19 1 -19 35 2 70 40
146 4 163 -79 21 -96 -30 -183 -107 -183 -27 0 -71 21 -73 34 -1 6 -4 -18 -7
-54 -6 -62 -7 -65 -33 -68 l-28 -3 0 185 0 186 25 0 c18 0 25 -5 25 -20z m300
0 c0 -20 0 -20 33 0 38 24 68 25 107 5 40 -20 60 -63 60 -125 0 -62 -20 -105
-60 -125 -39 -20 -69 -19 -107 5 l-33 20 0 -65 c0 -63 -1 -65 -25 -65 l-25 0
0 185 0 185 25 0 c18 0 25 -5 25 -20z m1028 0 c42 -26 66 -80 59 -138 -6 -55
-33 -93 -80 -111 -80 -30 -159 17 -172 103 -19 123 93 207 193 146z m162 0 c0
-20 0 -20 21 1 26 26 63 22 67 -8 3 -19 -1 -23 -22 -23 -52 0 -66 -30 -66
-136 l0 -95 -27 3 -28 3 -3 124 c-1 69 0 131 2 138 3 7 17 13 31 13 18 0 25
-5 25 -20z m287 0 c37 -22 48 -41 56 -92 l6 -38 -100 0 c-63 0 -99 -4 -99 -11
0 -15 21 -53 34 -61 22 -15 73 -8 91 12 21 24 65 27 65 5 0 -20 -34 -53 -66
-65 -58 -22 -128 0 -157 49 -22 37 -22 122 -1 162 28 56 113 75 171 39z"/>
<path d="M1737 844 c-12 -13 -8 -51 8 -64 21 -18 47 5 43 39 -3 26 -35 41 -51
25z"/>
<path d="M1590 800 c-11 -7 -12 -12 -3 -21 15 -15 43 -5 43 16 0 17 -18 19
-40 5z"/>
<path d="M1952 848 c-14 -14 -15 -47 -2 -68 7 -12 13 -12 27 -4 22 14 29 50
13 70 -15 17 -22 18 -38 2z"/>
<path d="M2375 843 c-19 -19 -16 -42 7 -57 24 -15 53 13 44 42 -9 27 -32 34
-51 15z"/>
<path d="M1168 510 l-26 -80 54 0 c30 0 54 4 54 8 0 13 -42 136 -49 144 -4 4
-19 -28 -33 -72z"/>
<path d="M1480 490 c-15 -15 -20 -33 -20 -70 0 -37 5 -55 20 -70 43 -43 106
-13 115 55 12 83 -62 138 -115 85z"/>
<path d="M1781 491 c-28 -28 -35 -73 -17 -115 27 -64 103 -59 126 8 28 87 -51
165 -109 107z"/>
<path d="M2674 502 c-19 -12 -34 -49 -34 -82 0 -33 15 -70 34 -82 21 -14 66
-8 86 12 25 25 27 105 4 138 -15 22 -66 30 -90 14z"/>
<path d="M3124 502 c-6 -4 -16 -17 -23 -29 -12 -23 -11 -23 59 -23 38 0 70 3
70 8 0 4 -7 18 -16 30 -15 22 -66 30 -90 14z"/>
</g>
</svg>
