<svg width="520" height="70" viewBox="0 0 520 70" fill="none" xmlns="http://www.w3.org/2000/svg">
<path fill-rule="evenodd" clip-rule="evenodd" d="M52.9799 60.092V70H43.0197V60.092H25.9028V9.92539H43.0197V0.0174255H52.9799V9.92539H70.0968V60.092H52.9799Z" fill="white"/>
<path fill-rule="evenodd" clip-rule="evenodd" d="M43.0895 70H30.9876H29.1592C20.2786 70 13 62.7214 13 53.8408V16.1766C13 7.29603 20.2786 0.0174299 29.1592 0.0174299H30.9876H43.0895V10.9876H30.3085C29.5423 10.9876 28.9328 11.6144 28.9328 12.3632V19.4154C28.9328 20.1816 29.5423 20.791 30.3085 20.791H53.2413L28.4105 50.8632C28.2015 51.1243 28.097 51.4204 28.0796 51.7338V57.6368C28.0796 58.403 28.689 59.0124 29.4552 59.0124H43.0721V70H43.0895ZM52.9104 0.0174299V10.9876H66.5274C67.2935 10.9876 67.903 11.6144 67.903 12.3632V18.2661C67.903 18.5796 67.7985 18.8756 67.5721 19.1368L42.7413 49.209H66.5099C67.2761 49.209 67.8856 49.8358 67.8856 50.5846V57.6368C67.8856 58.403 67.2761 59.0124 66.5099 59.0124H52.893V69.9826H64.1244H66.8059C75.6865 69.9826 82.9651 62.704 82.9651 53.8234V16.1592C82.9651 7.2786 75.6865 0 66.8059 0H64.1244H52.9104V0.0174299Z" fill="#303493"/>
<path fill-rule="evenodd" clip-rule="evenodd" d="M107.1 59.0298H147.097V49.7662H120.682L147.097 19.0323V11.005H107.918V20.2687H133.515L107.1 51.0025V59.0298ZM178.04 59.8482C192.858 59.8482 203.637 48.6692 203.637 35.0174C203.637 21.2264 192.998 10.1866 178.179 10.1866C163.361 10.1866 152.582 21.3657 152.582 35.0174C152.6 48.8085 163.221 59.8482 178.04 59.8482ZM178.179 50.097C169.664 50.097 163.639 43.2363 163.639 35C163.639 26.6244 169.542 19.903 178.04 19.903C186.555 19.903 192.58 26.7637 192.58 35C192.597 43.3756 186.694 50.097 178.179 50.097ZM236.373 59.8482C251.192 59.8482 261.97 48.6692 261.97 35.0174C261.97 21.2264 251.331 10.1866 236.512 10.1866C221.694 10.1866 210.916 21.3657 210.916 35.0174C210.916 48.8085 221.555 59.8482 236.373 59.8482ZM236.512 50.097C227.998 50.097 221.973 43.2363 221.973 35C221.973 26.6244 227.876 19.903 236.373 19.903C244.888 19.903 250.913 26.7637 250.913 35C250.913 43.3756 245.01 50.097 236.512 50.097ZM271.356 59.0298H290.092C305.189 59.0298 315.619 48.5299 315.619 35.0174C315.619 21.3657 305.189 11.005 290.092 11.005H271.356V59.0298ZM281.925 49.4876V20.5299H290.092C298.746 20.5299 304.562 26.5025 304.562 35C304.562 43.6368 298.729 49.4701 290.092 49.4701H281.925V49.4876ZM326.05 59.0298H331.326V20.199L348.826 45.8657H349.104L366.605 20.1294V59.0298H372.02V11.005H366.535L349.035 37.2114L331.535 11.005H326.05V59.0298ZM381.493 59.0298H387.047L392.741 46.3358H418.878L424.503 59.0298H430.336L408.448 10.6567H403.363L381.493 59.0298ZM394.866 41.4602L405.836 16.9602L416.754 41.4602H394.866ZM439.808 59.0298H468.017V54.0149H445.224V10.9876H439.808V59.0298ZM478.047 59.0298H506.256V54.0149H483.463V10.9876H478.047V59.0298Z" fill="#303493"/>
</svg>
